<?xml version="1.0" standalone="no"?>
<!DOCTYPE svg PUBLIC "-//W3C//DTD SVG 20010904//EN"
 "http://www.w3.org/TR/2001/REC-SVG-20010904/DTD/svg10.dtd">
<svg version="1.0" xmlns="http://www.w3.org/2000/svg"
 width="700.000000pt" height="700.000000pt" viewBox="0 0 700.000000 700.000000"
 preserveAspectRatio="xMidYMid meet">
<metadata>
Created by potrace 1.11, written by Peter Selinger 2001-2013
</metadata>
<g transform="translate(0.000000,700.000000) scale(0.100000,-0.100000)"
fill="#000000" stroke="none">
<path d="M3452 6988 c-68 -33 -310 -550 -430 -918 -94 -287 -95 -299 -40 -345
61 -51 146 -17 169 68 40 154 181 545 228 633 l20 39 1 -865 0 -865 -196 196
-196 196 22 125 c20 117 20 128 6 157 -19 37 -47 53 -91 53 -43 0 -71 -16 -89
-50 -8 -15 -25 -99 -40 -187 -166 -1035 -57 -2115 308 -3045 32 -80 107 -244
167 -366 l109 -220 -2 -233 -3 -232 -179 223 -180 223 -13 74 c-35 205 -122
507 -210 731 -319 809 -909 1580 -1613 2106 -282 211 -608 398 -888 509 -107
42 -137 41 -177 -7 -30 -36 -31 -52 -4 -193 115 -616 404 -1252 822 -1815 494
-664 1138 -1194 1807 -1484 l118 -51 201 -250 c111 -137 198 -251 193 -253 -4
-1 -58 6 -119 17 -104 17 -115 22 -170 64 -218 168 -528 328 -824 427 -217 73
-566 150 -678 150 -91 0 -137 -106 -73 -169 24 -24 44 -30 167 -50 301 -48
578 -133 848 -259 101 -48 129 -65 90 -56 -10 2 -441 74 -958 159 -517 85
-944 157 -950 158 -16 6 161 26 275 32 147 8 164 12 194 42 19 19 26 36 26 65
0 91 -41 113 -194 103 -263 -16 -505 -60 -724 -130 -128 -41 -145 -49 -162
-78 -43 -70 -24 -106 111 -207 409 -305 909 -497 1504 -577 183 -24 600 -24
780 1 172 23 333 58 479 103 l119 37 166 -28 c91 -15 178 -29 194 -32 l27 -6
0 -322 0 -323 24 -26 c44 -48 108 -48 152 0 l24 26 0 323 0 322 28 6 c15 3
102 17 193 32 l166 28 119 -37 c306 -94 634 -136 974 -123 673 25 1308 237
1789 596 135 101 154 137 111 207 -17 29 -34 37 -159 77 -295 95 -530 129
-886 130 -253 1 -355 -7 -580 -45 -494 -83 -991 -289 -1338 -556 -55 -42 -66
-47 -170 -64 -61 -11 -115 -18 -119 -17 -5 2 82 116 193 253 l201 250 117 51
c361 157 664 347 1011 633 126 103 517 490 550 543 29 47 26 91 -8 129 -24 27
-36 32 -72 32 -44 0 -46 -2 -175 -138 l-130 -137 -215 -24 c-118 -13 -215 -22
-216 -21 -3 4 1601 1995 1604 1992 2 -2 -21 -77 -51 -167 -126 -376 -305 -730
-554 -1097 -77 -112 -84 -128 -79 -160 8 -53 47 -86 100 -86 30 0 51 6 66 20
32 29 216 309 304 463 241 420 407 861 492 1300 31 161 30 174 -5 214 -42 48
-79 44 -241 -26 -666 -284 -1322 -822 -1822 -1492 -401 -539 -695 -1178 -808
-1759 -11 -60 -22 -117 -24 -126 -2 -8 -84 -116 -182 -238 l-179 -222 -3 232
-2 233 109 220 c115 232 195 424 266 641 405 1227 374 2674 -81 3852 -77 200
-212 485 -289 614 -45 74 -94 95 -153 67z m228 -699 c164 -412 281 -881 335
-1349 18 -161 35 -382 35 -465 l0 -60 -225 -225 -225 -225 0 1250 c1 1236 1
1250 20 1214 10 -20 38 -83 60 -140z m-485 -1644 l205 -206 0 -229 c0 -127 -3
-230 -8 -230 -4 0 -106 99 -226 219 l-219 219 7 134 c11 218 18 298 27 298 5
0 101 -92 214 -205z m-2435 -108 c202 -124 466 -321 613 -458 l57 -54 -22
-198 c-12 -109 -24 -194 -28 -190 -23 25 -788 980 -794 991 -11 18 30 -3 174
-91z m5654 91 c-4 -7 -80 -103 -169 -213 -89 -110 -264 -328 -390 -485 -125
-157 -231 -288 -235 -293 -3 -4 -16 82 -27 190 -20 186 -21 199 -5 217 57 63
349 293 517 406 76 51 304 190 312 190 2 0 1 -6 -3 -12z m-5502 -739 c218
-272 556 -692 751 -934 195 -242 354 -441 353 -442 -1 -1 -98 9 -216 22 l-215
23 -89 94 c-185 195 -394 459 -539 681 -220 337 -414 739 -516 1072 -12 39
-24 79 -28 90 -7 24 -5 22 499 -606z m2488 -1013 c0 -506 -3 -797 -10 -790
-14 14 -116 273 -165 419 -152 454 -248 980 -271 1475 l-6 145 226 -225 226
-225 0 -799z m646 1107 c-3 -76 -11 -190 -17 -253 l-11 -115 -201 -202 c-111
-112 -205 -203 -209 -203 -5 0 -8 105 -8 232 l0 233 222 222 c123 123 225 223
227 223 2 0 1 -62 -3 -137z m-2283 -295 c79 -89 76 -63 44 -352 l-23 -199 -40
49 c-22 27 -71 86 -107 131 l-68 83 21 197 c12 109 23 209 26 223 6 25 6 25
42 -16 21 -22 67 -75 105 -116z m3643 -69 c13 -117 20 -217 17 -223 -17 -28
-196 -246 -202 -246 -8 0 -55 429 -50 453 5 18 201 239 207 232 3 -2 15 -100
28 -216z m-3210 -497 c213 -322 396 -702 508 -1051 20 -62 36 -115 34 -116 -2
-2 -51 56 -109 128 -553 688 -659 822 -659 838 0 23 38 373 46 418 l5 34 51
-69 c27 -38 84 -120 124 -182z m2814 -4 c18 -173 19 -211 8 -226 -33 -47 -753
-940 -756 -937 -5 5 68 222 113 340 131 338 355 744 569 1031 29 38 32 40 38
20 3 -11 16 -114 28 -228z m-1076 -18 c-65 -315 -160 -627 -271 -895 l-58
-140 -3 420 -2 420 182 182 c100 100 183 181 184 180 2 -1 -13 -77 -32 -167z
m-1900 -800 c102 -12 174 -24 181 -32 21 -22 340 -421 348 -436 26 -41 -289
156 -490 308 -177 133 -233 179 -218 180 6 0 86 -9 179 -20z m3086 -11 c-186
-160 -721 -518 -684 -457 8 13 327 412 349 437 11 11 245 46 340 49 l30 1 -35
-30z m1200 -891 l85 -13 -955 -158 c-525 -87 -961 -160 -967 -162 -7 -3 -13
-2 -13 1 0 7 192 97 288 135 248 99 541 170 837 204 146 17 597 12 725 -7z
m-4830 -373 c481 -80 907 -150 945 -157 l70 -12 -40 -7 c-202 -37 -634 -37
-880 1 -256 38 -487 99 -710 185 -116 45 -327 148 -285 140 14 -3 419 -70 900
-150z m4845 103 c-248 -126 -578 -226 -920 -278 -245 -38 -677 -38 -880 -1
l-40 7 70 12 c222 38 1852 310 1860 310 6 1 -35 -22 -90 -50z"/>
</g>
</svg>
